<?xml version="1.0" encoding="UTF-8"?>
<svg version="1.1" xmlns="http://www.w3.org/2000/svg" width="277" height="294">
<path d="M0 0 C7.91034612 -0.32592446 15.81784533 -0.57385516 23.73326683 -0.72537041 C27.41005552 -0.79813817 31.08222136 -0.89657738 34.75634766 -1.05615234 C60.4992123 -2.14489146 60.4992123 -2.14489146 65.97070312 2.85571289 C68.7298767 6.25339912 70.31478036 9.98292537 72 14 C73.12802098 15.65677119 74.30536431 17.28194617 75.546875 18.85546875 C76.07410156 19.56960937 76.60132812 20.28375 77.14453125 21.01953125 C77.67433594 21.73496094 78.20414062 22.45039063 78.75 23.1875 C79.95315372 24.81638504 81.15627786 26.44529192 82.359375 28.07421875 C82.96201172 28.88938965 83.56464844 29.70456055 84.18554688 30.54443359 C87.12794685 34.52649212 90.0637044 38.51343938 93 42.5 C94.16663334 44.08335789 95.33330004 45.6666912 96.5 47.25 C98.83333333 50.41666667 101.16666667 53.58333333 103.5 56.75 C104.07782227 57.53415283 104.65564453 58.31830566 105.25097656 59.1262207 C106.41452134 60.7053868 107.57793338 62.28465072 108.74121094 63.86401367 C111.70454688 67.88692899 114.67035854 71.90797964 117.640625 75.92578125 C124.51148708 85.22518547 131.31884192 94.56324907 138 104 C141.28015836 100.9202133 143.80103854 97.62274517 146.375 93.9375 C150.4322725 88.17792373 154.56345159 82.47880678 158.75 76.8125 C159.63824463 75.60968384 159.63824463 75.60968384 160.54443359 74.38256836 C161.75785537 72.74002553 162.97156144 71.09769269 164.18554688 69.45556641 C167.12794685 65.47350788 170.0637044 61.48656062 173 57.5 C174.16663334 55.91664211 175.33330004 54.3333088 176.5 52.75 C177.0775 51.96625 177.655 51.1825 178.25 50.375 C183.5 43.25 183.5 43.25 185.25170898 40.87280273 C186.41283465 39.29690826 187.57380589 37.7209 188.73461914 36.14477539 C191.73477651 32.07165825 194.73797347 28.00083442 197.74609375 23.93359375 C198.67325195 22.67869141 198.67325195 22.67869141 199.61914062 21.3984375 C200.78479215 19.820864 201.95137484 18.24397785 203.11914062 16.66796875 C203.65603516 15.9409375 204.19292969 15.21390625 204.74609375 14.46484375 C205.25852631 13.79032669 205.77095886 13.11580963 206.29891968 12.42085266 C208.0519758 10.03930839 208.0519758 10.03930839 209.34817505 7.41081238 C211.6501266 3.27961049 213.34101326 0.48148934 218.01972961 -0.87641907 C221.786278 -1.15766958 225.47882273 -1.12685243 229.24609375 -0.9765625 C230.62609203 -0.95788541 232.00615713 -0.94366296 233.38624573 -0.9336853 C236.99989435 -0.89569705 240.60945268 -0.79766837 244.22149658 -0.68664551 C247.91467954 -0.58390734 251.60853103 -0.53858465 255.30273438 -0.48828125 C262.53701116 -0.38138109 269.76793024 -0.21097862 277 0 C275.6577242 2.7381957 274.24743572 5.19184214 272.453125 7.66015625 C271.69140991 8.7119104 271.69140991 8.7119104 270.91430664 9.78491211 C270.36508545 10.53651611 269.81586426 11.28812012 269.25 12.0625 C268.67435303 12.85470947 268.09870605 13.64691895 267.50561523 14.46313477 C261.62884539 22.53843129 255.70145683 30.57659596 249.76611328 38.60888672 C246.84043897 42.56991162 243.92049694 46.53515717 241 50.5 C239.8333611 52.08335379 238.66669442 53.66668712 237.5 55.25 C236.9225 56.03375 236.345 56.8175 235.75 57.625 C202.5 102.75 202.5 102.75 200.74829102 105.12719727 C199.58716535 106.70309174 198.42619411 108.2791 197.26538086 109.85522461 C194.26522349 113.92834175 191.26202653 117.99916558 188.25390625 122.06640625 C185.32105803 126.03234266 182.39985792 130.00663731 179.484375 133.98535156 C178.17865116 135.75752806 176.85856092 137.51742297 175.53125 139.2734375 C174.8815625 140.15257812 174.231875 141.03171875 173.5625 141.9375 C173.02753906 142.64777344 172.49257812 143.35804688 171.94140625 144.08984375 C170.80889439 145.93239151 170.80889439 145.93239151 171.27441406 147.87695312 C172.09040396 150.2645198 173.1519443 151.86407526 174.66796875 153.87890625 C175.22419922 154.62527344 175.78042969 155.37164062 176.35351562 156.140625 C176.95873047 156.93984375 177.56394531 157.7390625 178.1875 158.5625 C179.47282245 160.28242789 180.75797403 162.00248349 182.04296875 163.72265625 C182.70216309 164.60066895 183.36135742 165.47868164 184.04052734 166.38330078 C187.05151726 170.40420657 190.02498749 174.45244717 193 178.5 C194.1664609 180.08348493 195.33312826 181.6668178 196.5 183.25 C212.83333333 205.41666667 229.16666667 227.58333333 245.5 249.75 C246.07806396 250.5344751 246.65612793 251.3189502 247.25170898 252.12719727 C248.41283465 253.70309174 249.57380589 255.2791 250.73461914 256.85522461 C253.73477651 260.92834175 256.73797347 264.99916558 259.74609375 269.06640625 C277 292.40779817 277 292.40779817 277 294 C269.08965388 294.32592446 261.18215467 294.57385516 253.26673317 294.72537041 C249.58994448 294.79813817 245.91777864 294.89657738 242.24365234 295.05615234 C216.5007877 296.14489146 216.5007877 296.14489146 211.02929688 291.14428711 C208.2701233 287.74660088 206.68521964 284.01707463 205 280 C203.87197902 278.34322881 202.69463569 276.71805383 201.453125 275.14453125 C200.92589844 274.43039062 200.39867187 273.71625 199.85546875 272.98046875 C199.32566406 272.26503906 198.79585937 271.54960937 198.25 270.8125 C197.04684628 269.18361496 195.84372214 267.55470808 194.640625 265.92578125 C194.03798828 265.11061035 193.43535156 264.29543945 192.81445312 263.45556641 C189.87205325 259.47350802 186.9362252 255.48661232 184 251.5 C180.49112785 246.73617273 176.98102195 241.97328199 173.46484375 237.21484375 C167.16599292 228.68636514 160.90809722 220.13098254 154.71191406 211.52758789 C149.51840996 204.31947312 144.26611864 197.15516721 139 190 C133.7343473 196.23229426 128.77662923 202.58826683 124.07568359 209.25366211 C120.52916384 214.27823389 116.90415104 219.24071382 113.25 224.1875 C112.65743408 224.98994141 112.06486816 225.79238281 111.4543457 226.61914062 C110.24132175 228.26110709 109.02802245 229.90287017 107.81445312 231.54443359 C104.87205315 235.52649212 101.9362956 239.51343938 99 243.5 C97.83336666 245.08335789 96.66669996 246.6666912 95.5 248.25 C94.63375 249.425625 94.63375 249.425625 93.75 250.625 C88.5 257.75 88.5 257.75 86.74707031 260.12890625 C85.59008029 261.69915319 84.43317805 263.26946481 83.27636719 264.83984375 C80.21239538 268.99895624 77.14653827 273.15666287 74.078125 277.3125 C73.43746094 278.18068359 72.79679687 279.04886719 72.13671875 279.94335938 C70.90550684 281.61174074 69.67376054 283.27972791 68.44140625 284.94726562 C67.88839844 285.69685547 67.33539063 286.44644531 66.765625 287.21875 C66.27868164 287.87810547 65.79173828 288.53746094 65.29003906 289.21679688 C64.15577103 290.78467986 63.07343031 292.38985454 62 294 C59.4057312 294.36076355 59.4057312 294.36076355 56.08154297 294.34057617 C54.84040741 294.34034958 53.59927185 294.34012299 52.32052612 294.33988953 C50.96107628 294.32456848 49.60163009 294.30892047 48.2421875 294.29296875 C46.8549953 294.28737427 45.46779717 294.28310347 44.08059692 294.28010559 C40.42750719 294.26864497 36.77477466 294.23916786 33.12182617 294.20599365 C29.39506869 294.17531867 25.66825355 294.16160579 21.94140625 294.14648438 C14.62744123 294.11429886 7.31377064 294.06308839 0 294 C2.22672693 290.01038462 4.43646156 286.21004731 7.21484375 282.57421875 C7.81192139 281.78692383 8.40899902 280.99962891 9.02416992 280.18847656 C9.65556885 279.3631543 10.28696777 278.53783203 10.9375 277.6875 C15.93333523 271.09613624 20.86854419 264.47185191 25.6875 257.75 C30.20752897 251.45162148 34.81015366 245.22508739 39.48120117 239.03808594 C43.22040077 234.07212448 46.87297275 229.04833525 50.5 224 C54.5892426 218.3102236 58.72106047 212.65872505 62.9375 207.0625 C72.56673296 194.28196865 82.05542751 181.39880539 91.35571289 168.37670898 C93.84939677 164.90210649 96.37864629 161.48449385 99.0703125 158.16015625 C99.54500977 157.56960449 100.01970703 156.97905273 100.50878906 156.37060547 C101.78159799 154.80256673 103.0736723 153.25022052 104.3671875 151.69921875 C106.25972566 149.1766942 106.25972566 149.1766942 105.76879883 146.57983398 C104.96588428 143.88551895 104.02307579 142.25288138 102.33203125 140.0234375 C101.77580078 139.28029297 101.21957031 138.53714844 100.64648438 137.77148438 C100.04126953 136.98064453 99.43605469 136.18980469 98.8125 135.375 C97.52711431 133.66423487 96.24196453 131.95329246 94.95703125 130.2421875 C94.29783691 129.37045898 93.63864258 128.49873047 92.95947266 127.60058594 C89.93906553 123.59194195 86.97072666 119.54551374 84 115.5 C82.83361695 113.91645773 81.66694935 112.333125 80.5 110.75 C73.5 101.25 66.5 91.75 59.5 82.25 C58.92241943 81.46616943 58.34483887 80.68233887 57.74975586 79.87475586 C56.58379194 78.29231815 55.41793896 76.70979869 54.25219727 75.12719727 C51.32568557 71.15448113 48.39722466 67.18323006 45.46484375 63.21484375 C39.17791602 54.70220107 32.93887105 46.15872347 26.76025391 37.56713867 C23.16786398 32.58416387 19.51227483 27.65366037 15.8125 22.75 C11.90004833 17.56183317 8.03734187 12.34285656 4.25 7.0625 C3.81921143 6.46469727 3.38842285 5.86689453 2.94458008 5.25097656 C0 1.12161307 0 1.12161307 0 0 Z " fill="#EC7D31" transform="translate(0,0)"/>
<path d="M0 0 C7.91034612 -0.32592446 15.81784533 -0.57385516 23.73326683 -0.72537041 C27.41005552 -0.79813817 31.08222136 -0.89657738 34.75634766 -1.05615234 C60.4992123 -2.14489146 60.4992123 -2.14489146 65.97070312 2.85571289 C68.7298767 6.25339912 70.31478036 9.98292537 72 14 C73.12802098 15.65677119 74.30536431 17.28194617 75.546875 18.85546875 C76.07410156 19.56960937 76.60132812 20.28375 77.14453125 21.01953125 C77.67433594 21.73496094 78.20414062 22.45039063 78.75 23.1875 C79.95315372 24.81638504 81.15627786 26.44529192 82.359375 28.07421875 C82.96201172 28.88938965 83.56464844 29.70456055 84.18554688 30.54443359 C87.12794685 34.52649212 90.0637044 38.51343938 93 42.5 C94.16663334 44.08335789 95.33330004 45.6666912 96.5 47.25 C98.83333333 50.41666667 101.16666667 53.58333333 103.5 56.75 C104.07782227 57.53415283 104.65564453 58.31830566 105.25097656 59.1262207 C106.41452134 60.7053868 107.57793338 62.28465072 108.74121094 63.86401367 C112.30850304 68.70683753 115.88102843 73.5457489 119.45678711 78.38232422 C121.21164811 80.76052523 122.95992082 83.14344539 124.70703125 85.52734375 C126.82433323 88.41513769 128.96724665 91.2801393 131.13671875 94.12890625 C132.07054391 95.37743112 133.00415188 96.62611848 133.9375 97.875 C134.58477051 98.70414917 134.58477051 98.70414917 135.24511719 99.55004883 C137.01366943 101.9450566 138.05295632 103.36978134 137.79833984 106.39990234 C136.89907626 109.32869659 135.71961534 111.08445584 133.82421875 113.484375 C132.83736084 114.75244995 132.83736084 114.75244995 131.83056641 116.04614258 C131.12335449 116.93841553 130.41614258 117.83068848 129.6875 118.75 C123.7577532 126.35293945 118.0340525 134.03295598 112.6315918 142.02050781 C111.46804982 143.71360924 110.24050378 145.36244916 109 147 C108.34 147 107.68 147 107 147 C105.80175781 145.64916992 105.80175781 145.64916992 104.453125 143.73046875 C103.94531494 143.01640869 103.43750488 142.30234863 102.91430664 141.56665039 C102.36508545 140.78153076 101.81586426 139.99641113 101.25 139.1875 C100.06730977 137.52279522 98.88368598 135.85875337 97.69921875 134.1953125 C97.08739746 133.33325195 96.47557617 132.47119141 95.84521484 131.58300781 C92.96030278 127.54458897 90.01361737 123.55266701 87.0625 119.5625 C86.48209961 118.77641357 85.90169922 117.99032715 85.30371094 117.18041992 C84.12481147 115.58376301 82.94561228 113.98732735 81.76611328 112.39111328 C78.84043897 108.43008838 75.92049694 104.46484283 73 100.5 C71.8333611 98.91664621 70.66669442 97.33331288 69.5 95.75 C57.83333333 79.91666667 46.16666667 64.08333333 34.5 48.25 C33.6332666 47.07377075 33.6332666 47.07377075 32.74902344 45.8737793 C31.58547866 44.2946132 30.42206662 42.71534928 29.25878906 41.13598633 C26.29545312 37.11307101 23.32964146 33.09202036 20.359375 29.07421875 C14.91116145 21.70103811 9.473055 14.32130244 4.125 6.875 C3.70186523 6.28871826 3.27873047 5.70243652 2.84277344 5.09838867 C0 1.1191107 0 1.1191107 0 0 Z " fill="#0070BF" transform="translate(0,0)"/>
<path d="M0 0 C0.66 0 1.32 0 2 0 C3.22998047 1.3984375 3.22998047 1.3984375 4.6171875 3.375 C5.39449219 4.46941406 5.39449219 4.46941406 6.1875 5.5859375 C6.744375 6.38257813 7.30125 7.17921875 7.875 8 C9.0586124 9.66757836 10.24353412 11.33422808 11.4296875 13 C12.3283252 14.26457031 12.3283252 14.26457031 13.24511719 15.5546875 C15.77439353 19.07906588 18.38107628 22.54200363 21 26 C25.80706089 32.36494881 30.49079694 38.81141807 35.14453125 45.2890625 C38.70647268 50.23667566 42.32671066 55.13458773 46 60 C50.80601839 66.36575523 55.4907765 72.81138962 60.14453125 79.2890625 C63.70647268 84.23667566 67.32671066 89.13458773 71 94 C75.80159874 100.35990124 80.4829085 106.79900938 85.13134766 113.27148438 C88.81867007 118.39454896 92.57276689 123.46174127 96.375 128.5 C109 145.24229424 109 145.24229424 109 147 C101.08965388 147.32592446 93.18215467 147.57385516 85.26673317 147.72537041 C81.58994448 147.79813817 77.91777864 147.89657738 74.24365234 148.05615234 C48.5007877 149.14489146 48.5007877 149.14489146 43.02929688 144.14428711 C40.2701233 140.74660088 38.68521964 137.01707463 37 133 C35.87197902 131.34322881 34.69463569 129.71805383 33.453125 128.14453125 C32.92589844 127.43039062 32.39867187 126.71625 31.85546875 125.98046875 C31.32566406 125.26503906 30.79585937 124.54960937 30.25 123.8125 C29.04684628 122.18361496 27.84372214 120.55470808 26.640625 118.92578125 C25.73666992 117.7030249 25.73666992 117.7030249 24.81445312 116.45556641 C21.87205325 112.47350802 18.9362252 108.48661232 16 104.5 C12.49112785 99.73617273 8.98102195 94.97328199 5.46484375 90.21484375 C-0.83534874 81.68454857 -7.11401772 73.1404408 -13.28588867 64.51660156 C-15.89992871 60.87045873 -18.54817731 57.26390395 -21.29296875 53.71484375 C-21.81221924 53.03518555 -22.33146973 52.35552734 -22.86645508 51.65527344 C-23.84465156 50.37929615 -24.83475564 49.11232613 -25.83862305 47.85644531 C-27.75328991 45.34257515 -28.98720116 43.64683344 -29.05078125 40.43359375 C-27.70364262 37.3136407 -25.95238575 35.02105774 -23.8125 32.375 C-22.90808883 31.23731754 -22.00588238 30.09788016 -21.10546875 28.95703125 C-20.36562744 28.02238037 -20.36562744 28.02238037 -19.61083984 27.06884766 C-16.53919392 23.123845 -13.58714992 19.08996751 -10.625 15.0625 C-10.03050049 14.25796387 -9.43600098 13.45342773 -8.82348633 12.62451172 C-6.35988863 9.27753977 -3.93729261 5.94375196 -1.7109375 2.43359375 C-1.14632812 1.63050781 -0.58171875 0.82742187 0 0 Z " fill="#0070BF" transform="translate(168,147)"/>
</svg>
